# xmcd
#
# Track frame offsets:
#	150
#	14909
#	30161
#	46537
#	61810
#	74506
#	92931
#	113154
#	127789
#	141458
#	154608
#	169960
#	184500
#	202362
#
# Disc length: 3063 seconds
#
# Revision: 0
# Processed by: cddbd v1.5.1PL2 Copyright (c) Steve Scherf et al.
# Submitted via: dBpowerAMP V4.0
#
DISCID=c20bf50e
DTITLE=Downtown Blues Band - Downtown Blues Band
DYEAR=1900
DGENRE=Blues
TTITLE0=Goin to Chicago
TTITLE1=You Bug Me
TTITLE2=The Letter
TTITLE3=One Monkey
TTITLE4=Walking the Dog
TTITLE5=Black Drawers
TTITLE6=Unchain My Heart
TTITLE7=Tell Mama
TTITLE8=Soul Man
TTITLE9=Shake Your Tailfeather
TTITLE10=She Caught the Katie
TTITLE11=I'll See it Through
TTITLE12=Hound Dog
TTITLE13=Mustang Sally
EXTD=Made by the awsome Downtown Blues Band
EXTT0=
EXTT1=
EXTT2=
EXTT3=
EXTT4=
EXTT5=
EXTT6=
EXTT7=
EXTT8=
EXTT9=
EXTT10=
EXTT11=
EXTT12=
EXTT13=
PLAYORDER=
